<svg width="1170" height="80" viewBox="0 0 1170 80" fill="none" xmlns="http://www.w3.org/2000/svg">
<path d="M0 25.6C0 16.6392 0 12.1587 1.7439 8.73615C3.27787 5.72556 5.72556 3.27787 8.73615 1.7439C12.1587 0 16.6392 0 25.6 0H1144.4C1153.36 0 1157.84 0 1161.26 1.7439C1164.27 3.27787 1166.72 5.72556 1168.26 8.73615C1170 12.1587 1170 16.6392 1170 25.6V54.4C1170 63.3608 1170 67.8413 1168.26 71.2638C1166.72 74.2744 1164.27 76.7221 1161.26 78.2561C1157.84 80 1153.36 80 1144.4 80H25.6C16.6392 80 12.1587 80 8.73615 78.2561C5.72556 76.7221 3.27787 74.2744 1.7439 71.2638C0 67.8413 0 63.3608 0 54.4V25.6Z" fill="url(#paint0_linear_3217_40668)"/>
<g opacity="0.7">
<path d="M686.241 15L686.847 16.636L688.483 17.2414L686.847 17.8468L686.241 19.4828L685.636 17.8468L684 17.2414L685.636 16.636L686.241 15Z" fill="#B959BB"/>
<path d="M696.105 15L696.71 16.636L698.346 17.2414L696.71 17.8468L696.105 19.4828L695.499 17.8468L693.863 17.2414L695.499 16.636L696.105 15Z" fill="#B959BB"/>
<path d="M705.964 15L706.569 16.636L708.205 17.2414L706.569 17.8468L705.964 19.4828L705.359 17.8468L703.723 17.2414L705.359 16.636L705.964 15Z" fill="#B959BB"/>
<path d="M715.827 15L716.433 16.636L718.069 17.2414L716.433 17.8468L715.827 19.4828L715.222 17.8468L713.586 17.2414L715.222 16.636L715.827 15Z" fill="#B959BB"/>
<path d="M725.691 15L726.296 16.636L727.932 17.2414L726.296 17.8468L725.691 19.4828L725.085 17.8468L723.449 17.2414L725.085 16.636L725.691 15Z" fill="#B959BB"/>
<path d="M686.241 25.4824L686.847 27.1184L688.483 27.7238L686.847 28.3292L686.241 29.9652L685.636 28.3292L684 27.7238L685.636 27.1184L686.241 25.4824Z" fill="#B959BB"/>
<path d="M696.105 25.4824L696.71 27.1184L698.346 27.7238L696.71 28.3292L696.105 29.9652L695.499 28.3292L693.863 27.7238L695.499 27.1184L696.105 25.4824Z" fill="#B959BB"/>
<path d="M705.964 25.4824L706.569 27.1184L708.205 27.7238L706.569 28.3292L705.964 29.9652L705.359 28.3292L703.723 27.7238L705.359 27.1184L705.964 25.4824Z" fill="#B959BB"/>
<path d="M715.827 25.4824L716.433 27.1184L718.069 27.7238L716.433 28.3292L715.827 29.9652L715.222 28.3292L713.586 27.7238L715.222 27.1184L715.827 25.4824Z" fill="#B959BB"/>
<path d="M725.691 25.4824L726.296 27.1184L727.932 27.7238L726.296 28.3292L725.691 29.9652L725.085 28.3292L723.449 27.7238L725.085 27.1184L725.691 25.4824Z" fill="#B959BB"/>
<path d="M686.241 35.9648L686.847 37.6008L688.483 38.2062L686.847 38.8116L686.241 40.4476L685.636 38.8116L684 38.2062L685.636 37.6008L686.241 35.9648Z" fill="#B959BB"/>
<path d="M696.105 35.9648L696.71 37.6008L698.346 38.2062L696.71 38.8116L696.105 40.4476L695.499 38.8116L693.863 38.2062L695.499 37.6008L696.105 35.9648Z" fill="#B959BB"/>
<path d="M705.964 35.9648L706.569 37.6008L708.205 38.2062L706.569 38.8116L705.964 40.4476L705.359 38.8116L703.723 38.2062L705.359 37.6008L705.964 35.9648Z" fill="#B959BB"/>
<path d="M715.827 35.9648L716.433 37.6008L718.069 38.2062L716.433 38.8116L715.827 40.4476L715.222 38.8116L713.586 38.2062L715.222 37.6008L715.827 35.9648Z" fill="#B959BB"/>
<path d="M725.691 35.9648L726.296 37.6008L727.932 38.2062L726.296 38.8116L725.691 40.4476L725.085 38.8116L723.449 38.2062L725.085 37.6008L725.691 35.9648Z" fill="#B959BB"/>
<path d="M686.241 46.4492L686.847 48.0852L688.483 48.6906L686.847 49.296L686.241 50.932L685.636 49.296L684 48.6906L685.636 48.0852L686.241 46.4492Z" fill="#B959BB"/>
<path d="M696.105 46.4492L696.71 48.0852L698.346 48.6906L696.71 49.296L696.105 50.932L695.499 49.296L693.863 48.6906L695.499 48.0852L696.105 46.4492Z" fill="#B959BB"/>
<path d="M705.964 46.4492L706.569 48.0852L708.205 48.6906L706.569 49.296L705.964 50.932L705.359 49.296L703.723 48.6906L705.359 48.0852L705.964 46.4492Z" fill="#B959BB"/>
<path d="M715.827 46.4492L716.433 48.0852L718.069 48.6906L716.433 49.296L715.827 50.932L715.222 49.296L713.586 48.6906L715.222 48.0852L715.827 46.4492Z" fill="#B959BB"/>
<path d="M725.691 46.4492L726.296 48.0852L727.932 48.6906L726.296 49.296L725.691 50.932L725.085 49.296L723.449 48.6906L725.085 48.0852L725.691 46.4492Z" fill="#B959BB"/>
</g>
<g style="mix-blend-mode:multiply">
<mask id="mask0_3217_40668" style="mask-type:alpha" maskUnits="userSpaceOnUse" x="0" y="0" width="1170" height="80">
<path d="M0 16C0 7.16344 7.16344 0 16 0H1154C1162.84 0 1170 7.16344 1170 16V64C1170 72.8366 1162.84 80 1154 80H16C7.16344 80 0 72.8366 0 64V16Z" fill="white"/>
</mask>
<g mask="url(#mask0_3217_40668)">
<g filter="url(#filter0_f_3217_40668)">
<ellipse cx="1145" cy="97.1287" rx="133" ry="63.2673" fill="#FD78D4" fill-opacity="0.6"/>
</g>
<g filter="url(#filter1_f_3217_40668)">
<ellipse cx="112.694" cy="54.0619" rx="112.694" ry="54.0619" transform="matrix(-0.991338 0.131337 -0.164574 -0.986365 203 39.0625)" fill="#FFA8FC" fill-opacity="0.4"/>
</g>
<g opacity="0.3">
<path d="M-1.37985 -6.78711L-0.448502 -4.27018L2.06843 -3.33883L-0.448502 -2.40749L-1.37985 0.109442L-2.3112 -2.40749L-4.82812 -3.33883L-2.3112 -4.27018L-1.37985 -6.78711Z" fill="#B959BB"/>
<path d="M13.792 -6.78711L14.7234 -4.27018L17.2403 -3.33883L14.7234 -2.40749L13.792 0.109442L12.8607 -2.40749L10.3438 -3.33883L12.8607 -4.27018L13.792 -6.78711Z" fill="#B959BB"/>
<path d="M28.9639 -6.78711L29.8952 -4.27018L32.4122 -3.33883L29.8952 -2.40749L28.9639 0.109442L28.0326 -2.40749L25.5156 -3.33883L28.0326 -4.27018L28.9639 -6.78711Z" fill="#B959BB"/>
<path d="M44.1397 -6.78711L45.071 -4.27018L47.588 -3.33883L45.071 -2.40749L44.1397 0.109442L43.2083 -2.40749L40.6914 -3.33883L43.2083 -4.27018L44.1397 -6.78711Z" fill="#B959BB"/>
<path d="M-1.37985 4.24609L-0.448502 6.76302L2.06843 7.69437L-0.448502 8.62572L-1.37985 11.1426L-2.3112 8.62572L-4.82812 7.69437L-2.3112 6.76302L-1.37985 4.24609Z" fill="#B959BB"/>
<path d="M13.792 4.24609L14.7234 6.76302L17.2403 7.69437L14.7234 8.62572L13.792 11.1426L12.8607 8.62572L10.3438 7.69437L12.8607 6.76302L13.792 4.24609Z" fill="#B959BB"/>
<path d="M28.9639 4.24609L29.8952 6.76302L32.4122 7.69437L29.8952 8.62572L28.9639 11.1426L28.0326 8.62572L25.5156 7.69437L28.0326 6.76302L28.9639 4.24609Z" fill="#B959BB"/>
<path d="M44.1397 4.24609L45.071 6.76302L47.588 7.69437L45.071 8.62572L44.1397 11.1426L43.2083 8.62572L40.6914 7.69437L43.2083 6.76302L44.1397 4.24609Z" fill="#B959BB"/>
<path d="M-1.37985 15.2812L-0.448502 17.7982L2.06843 18.7295L-0.448502 19.6609L-1.37985 22.1778L-2.3112 19.6609L-4.82812 18.7295L-2.3112 17.7982L-1.37985 15.2812Z" fill="#B959BB"/>
<path d="M13.792 15.2812L14.7234 17.7982L17.2403 18.7295L14.7234 19.6609L13.792 22.1778L12.8607 19.6609L10.3438 18.7295L12.8607 17.7982L13.792 15.2812Z" fill="#B959BB"/>
<path d="M28.9639 15.2812L29.8952 17.7982L32.4122 18.7295L29.8952 19.6609L28.9639 22.1778L28.0326 19.6609L25.5156 18.7295L28.0326 17.7982L28.9639 15.2812Z" fill="#B959BB"/>
<path d="M44.1397 15.2812L45.071 17.7982L47.588 18.7295L45.071 19.6609L44.1397 22.1778L43.2083 19.6609L40.6914 18.7295L43.2083 17.7982L44.1397 15.2812Z" fill="#B959BB"/>
</g>
<g opacity="0.8" filter="url(#filter2_f_3217_40668)">
<path d="M351 0H576L643 45L576 90H351L484.674 45L351 0Z" fill="url(#paint1_linear_3217_40668)" fill-opacity="0.4"/>
</g>
</g>
</g>
<defs>
<filter id="filter0_f_3217_40668" x="932" y="-46.1387" width="426" height="286.535" filterUnits="userSpaceOnUse" color-interpolation-filters="sRGB">
<feFlood flood-opacity="0" result="BackgroundImageFix"/>
<feBlend mode="normal" in="SourceGraphic" in2="BackgroundImageFix" result="shape"/>
<feGaussianBlur stdDeviation="40" result="effect1_foregroundBlur_3217_40668"/>
</filter>
<filter id="filter1_f_3217_40668" x="-109.691" y="-134.816" width="384.152" height="270.709" filterUnits="userSpaceOnUse" color-interpolation-filters="sRGB">
<feFlood flood-opacity="0" result="BackgroundImageFix"/>
<feBlend mode="normal" in="SourceGraphic" in2="BackgroundImageFix" result="shape"/>
<feGaussianBlur stdDeviation="40" result="effect1_foregroundBlur_3217_40668"/>
</filter>
<filter id="filter2_f_3217_40668" x="331" y="-20" width="332" height="130" filterUnits="userSpaceOnUse" color-interpolation-filters="sRGB">
<feFlood flood-opacity="0" result="BackgroundImageFix"/>
<feBlend mode="normal" in="SourceGraphic" in2="BackgroundImageFix" result="shape"/>
<feGaussianBlur stdDeviation="2" result="effect1_foregroundBlur_3217_40668"/>
</filter>
<linearGradient id="paint0_linear_3217_40668" x1="0" y1="40" x2="1170" y2="40" gradientUnits="userSpaceOnUse">
<stop offset="0.4" stop-color="#E959AC"/>
<stop offset="1" stop-color="#FFEDEF"/>
</linearGradient>
<linearGradient id="paint1_linear_3217_40668" x1="724.697" y1="45.4286" x2="371.679" y2="45.4286" gradientUnits="userSpaceOnUse">
<stop stop-color="#FD77D3"/>
<stop offset="0.59212" stop-color="#FDB2E6"/>
<stop offset="1" stop-color="#DCD6FF" stop-opacity="0"/>
</linearGradient>
</defs>
</svg>
