<svg width="98" height="33" viewBox="0 0 98 33" fill="none" xmlns="http://www.w3.org/2000/svg">
  <g clip-path="url(#clip0_12439_204373)">
    <path d="M1.47961 0.151123C3.31906 -0.0507302 5.52905 0.55501 7.12708 1.71948C9.16167 3.19983 9.75284 5.64837 11.4279 7.18042C13.1902 8.78995 16.3141 7.79123 14.9738 5.27612C14.65 4.66537 14.0634 4.07028 13.2823 3.6355C11.9414 2.88497 12.9335 1.70895 14.1564 1.63647C18.3081 1.39845 19.4541 7.22709 26.4728 7.22729L26.4777 7.23218H85.4933C92.3734 7.23243 98.0001 12.9003 98.0001 19.8308C98 26.7613 92.3682 32.4282 85.4933 32.4285H14.5109C7.6667 32.4283 2.05555 26.8182 2.00403 19.9343C1.99889 19.1632 2.0555 18.3452 2.19934 17.5896C2.53848 15.8505 4.06949 16.1765 4.38293 17.4861C5.49291 22.1546 10.2457 19.6029 8.62708 16.7302C8.11321 15.8141 6.98775 14.7996 6.50989 14.1267C5.34362 12.4912 5.18975 11.4816 5.22571 8.81616C5.27194 5.62259 3.86881 3.84162 1.1095 2.34058C-0.364593 1.53833 0.395621 0.270306 1.47961 0.151123ZM28.4601 12.3669C27.7716 12.3669 27.1084 12.4597 26.4816 12.6511C25.865 12.8374 25.2789 13.096 24.7394 13.4324C23.7322 14.0535 22.9307 14.898 22.3243 15.9695C21.7079 17.0252 21.3947 18.1946 21.3947 19.4832V20.8757C21.3947 21.5693 21.4868 22.2372 21.6769 22.8738C21.8619 23.4949 22.1192 24.0852 22.4532 24.6287C23.0698 25.6431 23.9072 26.4506 24.9708 27.0613C26.019 27.6824 27.1807 27.9978 28.4601 27.9978H29.6925C30.381 27.9978 31.0339 27.9051 31.6505 27.7136C32.2824 27.5273 32.8733 27.2687 33.423 26.9324C34.4301 26.3112 35.2317 25.4667 35.838 24.3953C36.4545 23.3395 36.7637 22.1702 36.7638 20.8816V19.489C36.7638 18.2002 36.4546 17.0303 35.838 15.9744L35.8331 15.9695C35.2114 14.898 34.4047 14.0535 33.3976 13.4324C32.8633 13.096 32.2824 12.8374 31.6505 12.6511C31.0185 12.4596 30.3656 12.3669 29.6925 12.3669H28.4601ZM61.0011 12.3669C60.3126 12.367 59.6494 12.4596 59.0226 12.6511C58.4063 12.8374 57.8207 13.0961 57.2814 13.4324C56.2742 14.0535 55.4727 14.898 54.8663 15.9695C54.2499 17.0252 53.9357 18.1946 53.9357 19.4832V20.8757C53.9357 21.5693 54.0288 22.2371 54.2189 22.8738C54.4039 23.4949 54.6603 24.0852 54.9943 24.6287C55.6108 25.643 56.4484 26.4505 57.5118 27.0613C58.56 27.6824 59.7217 27.9978 61.0011 27.9978H62.2345C62.923 27.9978 63.5759 27.9051 64.1925 27.7136C64.8244 27.5273 65.4153 27.2687 65.965 26.9324C66.9721 26.3112 67.7737 25.4667 68.38 24.3953C68.9964 23.3395 69.3047 22.1701 69.3048 20.8816V19.489C69.3048 18.2002 68.9966 17.0303 68.38 15.9744L68.3751 15.9695C67.7534 14.898 66.9467 14.0535 65.9396 13.4324C65.4052 13.096 64.8244 12.8375 64.1925 12.6511C63.5605 12.4596 62.9076 12.3669 62.2345 12.3669H61.0011ZM41.0792 18.2517C39.9439 18.2519 39.014 19.2403 39.0138 20.446V25.7986C39.0139 27.0044 39.9439 27.9927 41.0792 27.9929H42.1486C43.284 27.9928 44.2139 27.0045 44.214 25.7986V20.446C44.2138 19.2402 43.284 18.2518 42.1486 18.2517H41.0792ZM48.5402 18.2517C47.4049 18.252 46.4749 19.2403 46.4747 20.446V25.7986C46.4748 27.0044 47.4048 27.9927 48.5402 27.9929H49.6095C50.745 27.9929 51.6748 27.0045 51.6749 25.7986V20.446C51.6748 19.2402 50.7449 18.2518 49.6095 18.2517H48.5402ZM73.6212 18.2517C72.4857 18.2517 71.556 19.2402 71.5558 20.446V25.7986C71.5559 27.0045 72.4857 27.9929 73.6212 27.9929H74.6896C75.8251 27.9929 76.7559 27.0045 76.756 25.7986V20.446C76.7558 19.2402 75.8251 18.2517 74.6896 18.2517H73.6212ZM81.0822 18.2517C79.9467 18.2518 79.0169 19.2402 79.0167 20.446V25.7986C79.0168 27.0045 79.9467 27.9929 81.0822 27.9929H82.1515C83.2868 27.9927 84.2168 27.0044 84.2169 25.7986V20.446C84.2168 19.2403 83.2868 18.252 82.1515 18.2517H81.0822ZM29.2716 16.6267C30.5304 16.6268 31.5575 17.6615 31.5577 18.9294V21.4509C31.5575 22.7188 30.5304 23.7536 29.2716 23.7537H28.7677C27.509 23.7535 26.4818 22.7188 26.4816 21.4509V18.9294C26.4818 17.6616 27.509 16.6269 28.7677 16.6267H29.2716ZM61.8136 16.6267C63.0722 16.6269 64.0995 17.6616 64.0997 18.9294V21.4509C64.0995 22.7187 63.0722 23.7534 61.8136 23.7537H61.3097C60.0509 23.7537 59.0228 22.7189 59.0226 21.4509V18.9294C59.0228 17.6615 60.0509 16.6267 61.3097 16.6267H61.8136ZM41.0792 12.4597C39.9439 12.46 39.014 13.4483 39.0138 14.6541V15.1355C39.0138 16.3414 39.9438 17.3306 41.0792 17.3308H42.1486C43.2841 17.3307 44.214 16.3415 44.214 15.1355V14.6541C44.2138 13.4482 43.284 12.4598 42.1486 12.4597H41.0792ZM48.5402 12.4597C47.4049 12.46 46.4749 13.4484 46.4747 14.6541V15.1355C46.4747 16.3414 47.4048 17.3305 48.5402 17.3308H49.6095C50.745 17.3308 51.6749 16.3415 51.6749 15.1355V14.6541C51.6748 13.4482 50.7449 12.4598 49.6095 12.4597H48.5402ZM73.6212 12.4597C72.4857 12.4597 71.556 13.4482 71.5558 14.6541V15.1355C71.5558 16.3415 72.4856 17.3308 73.6212 17.3308H74.6896C75.8252 17.3308 76.756 16.3415 76.756 15.1355V14.6541C76.7558 13.4482 75.8251 12.4597 74.6896 12.4597H73.6212ZM81.0822 12.4597C79.9467 12.4598 79.0169 13.4482 79.0167 14.6541V15.1355C79.0167 16.3415 79.9466 17.3308 81.0822 17.3308H82.1515C83.2869 17.3305 84.2169 16.3414 84.2169 15.1355V14.6541C84.2167 13.4484 83.2868 12.46 82.1515 12.4597H81.0822ZM1.4386 10.2078C2.39421 10.2078 3.3094 11.222 3.48938 12.4744C3.66407 13.7269 3.03679 14.7418 2.08118 14.7419C1.1255 14.7419 0.206111 13.722 0.0313721 12.4695C-0.143227 11.2171 0.483033 10.2021 1.4386 10.2019V10.2078Z" fill="white" fill-opacity="0.06"/>
  </g>
  <defs>
    <clipPath id="clip0_12439_204373">
      <rect width="98" height="32.8404" fill="white"/>
    </clipPath>
  </defs>
</svg>
