<svg width="832" height="229" viewBox="0 0 832 229" fill="none" xmlns="http://www.w3.org/2000/svg">
<path d="M45.5765 10.367C46.2965 12.311 46.6925 13.607 46.7645 14.255C46.9085 15.623 46.4045 16.775 45.2525 17.711C45.2525 17.783 45.1805 17.891 45.0365 18.035C45.6845 21.419 45.8285 24.587 45.4685 27.539C45.1085 30.491 44.6405 33.335 44.0645 36.071C47.9525 29.447 51.0485 24.587 53.3525 21.491C58.1045 15.083 62.5325 10.511 66.6365 7.77503C68.0045 6.98303 69.6605 6.40703 71.6045 6.04703C73.6205 5.61503 75.5285 5.54303 77.3285 5.83103C79.1285 6.11903 80.6045 6.83903 81.7565 7.99103C82.9805 9.14303 83.5205 10.871 83.3765 13.175C81.3605 27.215 79.2005 40.319 76.8965 52.487C74.5925 64.583 71.6045 76.139 67.9325 87.155V87.371H67.8245C66.9605 89.963 64.8005 91.799 61.3445 92.879C57.9605 93.887 54.9365 93.959 52.2725 93.095C49.0325 92.159 47.5565 90.431 47.8445 87.911L47.9525 85.427V85.211C48.2405 83.483 48.3845 82.331 48.3845 81.755C48.4565 81.107 48.5285 80.639 48.6005 80.351C48.7445 78.479 49.0325 76.751 49.4645 75.167C49.9685 73.511 50.3285 72.179 50.5445 71.171C50.7605 70.163 50.9765 69.227 51.1925 68.363C51.4085 67.427 51.5525 66.707 51.6245 66.203C48.8885 69.947 46.9445 72.215 45.7925 73.007C42.9125 75.023 39.5645 75.959 35.7485 75.815C33.3725 75.671 32.0045 75.131 31.6445 74.195C30.9245 72.179 30.4205 70.991 30.1325 70.631C29.7005 70.055 29.3405 69.083 29.0525 67.715C27.1805 75.995 25.3445 81.863 23.5445 85.319C22.8245 86.687 22.1045 87.911 21.3845 88.991C20.3765 91.367 18.0725 93.023 14.4725 93.959C11.0885 94.895 7.84851 94.823 4.75251 93.743C1.58451 92.735 0.0725072 90.935 0.216507 88.343C0.360507 85.751 0.900507 82.511 1.83651 78.623C2.70051 74.663 3.74451 70.487 4.96851 66.095C8.64051 52.199 11.2325 43.163 12.7445 38.987C14.3285 34.811 15.6605 31.535 16.7405 29.159C19.3325 23.615 21.6365 19.583 23.6525 17.063C25.8845 12.527 29.5925 9.79103 34.7765 8.85503C38.8805 8.06303 42.4805 8.56703 45.5765 10.367ZM130.508 42.875L130.94 42.983C131.084 42.983 131.156 43.019 131.156 43.091C133.028 42.371 134.576 42.911 135.8 44.711C136.592 45.935 137.204 47.807 137.636 50.327C137.78 53.783 137.42 58.571 136.556 64.691C134.9 77.075 134 84.455 133.856 86.831C134 89.351 132.452 91.079 129.212 92.015C126.404 92.879 123.596 92.843 120.788 91.907C117.836 90.899 116.612 89.351 117.116 87.263C116.54 88.343 115.964 89.099 115.388 89.531C114.812 90.035 113.66 90.683 111.932 91.475C110.276 92.339 107.9 93.023 104.804 93.527C101.708 94.103 98.6124 94.247 95.5164 93.959C92.4204 93.743 89.5764 92.987 86.9844 91.691C84.4644 90.467 82.7724 88.523 81.9084 85.859C80.2524 80.675 80.4684 74.087 82.5564 66.095C83.9964 60.839 86.5884 56.195 90.3324 52.163C94.6524 47.555 99.5484 43.739 105.02 40.715C109.124 38.483 113.084 37.151 116.9 36.719C118.196 36.575 119.312 36.611 120.248 36.827C121.256 37.043 122.3 37.259 123.38 37.475C124.532 37.691 125.612 38.015 126.62 38.447C129.212 39.527 130.508 41.003 130.508 42.875ZM110.528 71.495C111.032 70.487 111.428 69.227 111.716 67.715C112.076 66.203 112.544 64.547 113.12 62.747C107.288 65.123 102.824 68.039 99.7284 71.495C96.3444 75.311 96.5604 77.939 100.376 79.379C103.688 80.243 106.1 79.703 107.612 77.759C108.26 76.895 108.836 75.815 109.34 74.519C109.844 73.223 110.456 71.891 111.176 70.523C110.96 70.883 110.744 71.207 110.528 71.495ZM163.463 4.42703C165.047 2.48303 166.955 1.40303 169.187 1.18703C171.419 0.971028 173.579 1.33103 175.667 2.26702C177.755 3.13103 179.519 4.49903 180.959 6.37103C182.471 8.17103 183.299 10.187 183.443 12.419L182.471 15.551C183.263 16.487 183.947 17.243 184.523 17.819C185.171 18.395 185.531 19.295 185.603 20.519C186.035 21.527 184.235 25.523 180.203 32.507C178.547 35.387 176.783 38.411 174.911 41.579C173.111 44.675 171.635 47.447 170.483 49.895C171.347 49.679 172.211 49.499 173.075 49.355C173.939 49.211 174.803 49.031 175.667 48.815C180.995 47.447 184.595 46.763 186.467 46.763C188.339 46.691 189.887 46.871 191.111 47.303C194.423 48.599 196.151 50.615 196.295 53.351C195.287 55.727 191.507 59.039 184.955 63.287C183.443 64.223 182.219 65.015 181.283 65.663L171.887 72.359C171.383 73.151 171.023 73.907 170.807 74.627V74.735C170.951 75.095 171.851 75.599 173.507 76.247C175.235 76.895 176.711 77.471 177.935 77.975C180.815 79.271 183.371 81.035 185.603 83.267C186.323 84.059 186.791 85.247 187.007 86.831C187.223 88.343 186.971 89.747 186.251 91.043C185.603 92.339 184.415 93.275 182.687 93.851C180.959 94.427 178.547 94.175 175.451 93.095C170.915 91.079 165.551 86.579 159.359 79.595C158.639 82.115 157.919 84.599 157.199 87.047C156.551 89.423 155.831 91.871 155.039 94.391C153.959 96.839 151.439 97.991 147.479 97.847C145.895 97.847 144.455 97.523 143.159 96.875C141.935 96.227 141.215 95.363 140.999 94.283C140.423 92.699 140.135 91.511 140.135 90.719C140.135 89.999 140.315 89.135 140.675 88.127C142.331 83.951 143.375 80.639 143.807 78.191C144.239 75.671 144.527 74.195 144.671 73.763C142.655 72.467 141.467 70.415 141.107 67.607C140.675 64.871 141.323 62.423 143.051 60.263C145.355 59.399 147.011 58.751 148.019 58.319C148.451 55.583 149.171 52.631 150.179 49.463C151.979 43.775 153.347 38.843 154.283 34.667C155.291 30.491 156.695 25.775 158.495 20.519C160.367 15.191 162.023 9.82703 163.463 4.42703ZM234.482 73.223C233.114 73.871 231.782 74.375 230.486 74.735C229.19 75.095 227.678 75.455 225.95 75.815C221.414 76.751 218.138 77.291 216.122 77.435C216.338 78.155 217.418 79.019 219.362 80.027C220.658 80.243 222.062 80.063 223.574 79.487C225.158 78.839 226.778 78.263 228.434 77.759C230.162 77.183 231.818 76.859 233.402 76.787C235.058 76.715 236.606 77.327 238.046 78.623C238.622 79.919 239.09 80.675 239.45 80.891C239.81 81.107 240.134 81.215 240.422 81.215C240.71 81.215 241.034 81.323 241.394 81.539C241.754 81.755 242.258 82.583 242.906 84.023C243.626 85.463 243.446 86.831 242.366 88.127C241.358 89.423 239.774 90.539 237.614 91.475C235.454 92.411 232.934 93.167 230.054 93.743C227.174 94.319 224.294 94.715 221.414 94.931C214.934 95.435 210.002 94.931 206.618 93.419C201.722 91.763 198.554 88.487 197.114 83.591C195.242 77.111 196.286 69.551 200.246 60.911C202.046 56.879 204.89 52.559 208.778 47.951C212.162 43.919 215.942 41.003 220.118 39.203C224.942 37.115 229.982 36.143 235.238 36.287C240.854 36.431 244.742 38.879 246.902 43.631C247.982 46.151 248.198 49.679 247.55 54.215C246.398 60.119 244.886 64.295 243.014 66.743C241.142 69.119 238.298 71.279 234.482 73.223ZM228.218 56.159C224.402 55.367 221.414 57.527 219.254 62.639C218.606 64.007 218.102 65.447 217.742 66.959C220.19 67.247 222.782 65.879 225.518 62.855C226.526 61.631 227.282 60.407 227.786 59.183C228.29 57.887 228.434 56.879 228.218 56.159ZM348.74 15.983C351.188 17.279 352.736 19.187 353.384 21.707C351.944 29.771 350.648 37.799 349.496 45.791C348.344 53.711 347.228 60.371 346.148 65.771C345.068 71.099 344.312 75.095 343.88 77.759C343.52 80.423 343.088 83.087 342.584 85.751L341.936 88.019C341.792 88.811 341.648 89.531 341.504 90.179C341.36 90.899 341.216 91.655 341.072 92.447C339.056 94.751 336.32 95.903 332.864 95.903C329.192 95.903 326.276 94.967 324.116 93.095C322.82 92.087 322.604 89.963 323.468 86.723C323.828 85.427 324.044 83.771 324.116 81.755C324.26 79.667 324.404 77.939 324.548 76.571V76.355C322.388 77.147 320.444 78.191 318.716 79.487C316.988 80.711 315.908 81.503 315.476 81.863C315.044 82.151 314.468 82.403 313.748 82.619C313.028 82.763 312.38 82.871 311.804 82.943C310.436 83.015 309.5 83.231 308.996 83.591C304.82 91.079 301.076 95.255 297.764 96.119C295.676 96.767 293.588 96.911 291.5 96.551C289.412 96.263 287.756 95.039 286.532 92.879C284.228 90.719 284.804 84.815 288.26 75.167C290.132 70.055 292.796 63.935 296.252 56.807C299.78 49.607 303.164 43.343 306.404 38.015C313.388 26.567 321.056 16.919 329.408 9.07103C330.776 8.49503 332.252 7.84703 333.836 7.12703C335.42 6.33503 336.968 5.90303 338.48 5.83103C340.064 5.75903 341.684 5.93903 343.34 6.37103C344.996 6.80303 346.4 7.45103 347.552 8.31503C350.216 10.331 350.612 12.887 348.74 15.983ZM325.628 44.387C324.116 48.707 322.604 52.703 321.092 56.375C319.58 59.975 318.284 63.143 317.204 65.879L325.736 65.555C326.312 60.947 326.96 56.375 327.68 51.839C328.4 47.303 329.084 42.767 329.732 38.231L325.628 44.387ZM322.712 65.987C323.72 65.987 324.728 65.915 325.736 65.771V65.663C324.8 65.735 323.936 65.807 323.144 65.879C322.352 65.951 322.208 65.987 322.712 65.987ZM371.253 42.443C376.077 40.499 379.317 40.463 380.973 42.335C381.837 43.343 382.269 44.747 382.269 46.547V47.087C384.933 43.991 389.577 41.399 396.201 39.311C403.185 37.151 408.945 36.539 413.481 37.475C419.385 38.699 422.697 42.551 423.417 49.031C423.993 54.503 422.733 61.451 419.637 69.875C418.629 72.035 417.837 73.799 417.261 75.167C416.757 76.463 416.289 77.651 415.857 78.731C414.921 80.747 413.445 83.159 411.429 85.967C410.277 88.127 408.477 89.783 406.029 90.935C403.653 92.087 401.277 92.735 398.901 92.879C396.597 93.095 394.689 92.735 393.177 91.799C391.665 90.935 391.233 89.531 391.881 87.587C393.537 83.123 394.905 79.055 395.985 75.383C397.065 71.711 398.181 68.579 399.333 65.987C400.413 62.315 400.557 60.011 399.765 59.075C399.117 58.355 398.001 58.463 396.417 59.399C395.049 60.263 394.077 61.271 393.501 62.423C392.205 63.359 389.757 67.103 386.157 73.655C385.149 75.455 384.141 77.255 383.133 79.055C382.197 80.783 381.297 82.403 380.433 83.915C379.641 85.427 378.921 86.687 378.273 87.695C377.697 88.703 377.157 89.351 376.653 89.639C376.221 89.999 375.825 90.215 375.465 90.287C375.177 90.431 374.925 90.575 374.709 90.719C374.493 90.863 374.313 91.331 374.169 92.123C373.881 93.779 372.153 95.003 368.985 95.795C363.873 97.091 359.265 96.875 355.161 95.147C353.793 94.571 352.713 93.779 351.921 92.771C350.265 89.459 353.109 78.191 360.453 58.967C363.045 52.199 364.737 48.167 365.529 46.871C367.329 44.135 368.481 42.587 368.985 42.227C369.561 41.867 370.317 41.939 371.253 42.443ZM441.166 42.443C442.102 40.067 444.334 38.447 447.862 37.583C451.174 36.719 454.27 36.827 457.15 37.907C460.102 39.059 461.434 40.931 461.146 43.523C460.354 46.043 459.346 49.139 458.122 52.811C456.97 56.411 455.854 60.119 454.774 63.935C451.894 73.727 450.238 80.639 449.806 84.671C448.726 91.151 446.926 94.643 444.406 95.147C443.686 95.291 443.002 95.399 442.354 95.471C440.77 95.543 439.762 95.975 439.33 96.767C438.898 97.559 438.178 98.135 437.17 98.495C436.162 98.927 435.046 99.107 433.822 99.035C432.67 99.035 431.482 98.747 430.258 98.171C429.034 97.667 427.99 96.911 427.126 95.903C425.11 93.455 424.714 90.179 425.938 86.075C427.09 78.227 430.006 68.255 434.686 56.159C436.918 50.183 439.078 45.611 441.166 42.443ZM461.578 26.243C458.05 26.963 455.17 26.747 452.938 25.595C450.778 24.443 449.518 23.075 449.158 21.491C448.798 19.835 449.302 18.143 450.67 16.415C452.254 14.255 454.63 12.851 457.798 12.203C459.238 12.059 460.282 11.987 460.93 11.987C461.578 11.987 462.37 12.131 463.306 12.419C465.682 12.635 467.23 13.679 467.95 15.551C468.958 17.135 469.03 18.935 468.166 20.951C467.374 22.967 465.178 24.731 461.578 26.243ZM479.861 42.227C480.005 40.859 480.869 39.743 482.453 38.879C484.037 38.015 485.801 37.583 487.745 37.583C489.689 37.583 491.561 38.051 493.361 38.987C495.233 39.851 496.493 41.363 497.141 43.523C503.261 38.195 508.841 36.143 513.881 37.367C515.609 37.727 517.085 38.735 518.309 40.391C521.981 36.863 526.049 34.559 530.513 33.479C536.129 33.263 540.161 34.559 542.609 37.367C542.969 37.727 543.329 38.123 543.689 38.555C544.697 39.635 545.273 40.355 545.417 40.715C546.713 42.731 547.073 47.375 546.497 54.647C545.705 64.079 543.905 73.547 541.097 83.051C539.585 87.875 538.217 90.359 536.993 90.503C536.273 90.647 535.589 90.647 534.941 90.503C534.365 90.359 533.825 90.251 533.321 90.179C532.889 90.179 532.637 90.611 532.565 91.475C531.125 93.347 528.929 94.283 525.977 94.283C523.097 94.283 520.649 93.383 518.633 91.583C516.401 89.711 515.609 87.515 516.257 84.995C516.977 82.403 517.769 79.775 518.633 77.111C519.497 74.375 520.433 71.567 521.441 68.687C523.169 63.647 525.077 58.391 527.165 52.919C525.653 54.647 523.601 57.923 521.009 62.747C518.417 67.499 516.797 70.343 516.149 71.279C514.925 73.727 513.917 75.671 513.125 77.111C512.333 78.479 511.253 79.595 509.885 80.459C508.589 81.251 507.365 81.755 506.213 81.971C505.133 82.187 504.089 82.223 503.081 82.079C500.705 81.719 499.013 80.711 498.005 79.055C497.789 78.479 497.573 77.903 497.357 77.327C497.141 76.751 496.961 75.959 496.817 74.951C496.601 72.719 496.889 69.083 497.681 64.043L497.465 64.367C498.329 63.503 498.617 63.287 498.329 63.719C495.449 67.823 493.721 70.451 493.145 71.603C492.569 72.755 491.957 74.051 491.309 75.491C490.661 76.859 489.905 78.479 489.041 80.351C488.177 82.151 487.493 83.771 486.989 85.211C486.485 86.651 485.873 88.055 485.153 89.423C481.913 95.039 476.225 97.307 468.089 96.227C466.361 96.011 464.885 95.579 463.661 94.931C462.437 94.355 461.933 93.455 462.149 92.231C462.725 89.351 464.057 84.563 466.145 77.867C470.249 64.619 472.697 56.087 473.489 52.271C473.993 50.975 474.425 49.643 474.785 48.275C475.217 46.907 475.649 45.719 476.081 44.711C476.945 42.335 478.205 41.507 479.861 42.227ZM517.337 68.903V69.119C517.481 68.831 517.481 68.759 517.337 68.903ZM600.346 42.875L600.778 42.983C600.922 42.983 600.994 43.019 600.994 43.091C602.866 42.371 604.414 42.911 605.638 44.711C606.43 45.935 607.042 47.807 607.474 50.327C607.618 53.783 607.258 58.571 606.394 64.691C604.738 77.075 603.838 84.455 603.694 86.831C603.838 89.351 602.29 91.079 599.05 92.015C596.242 92.879 593.434 92.843 590.626 91.907C587.674 90.899 586.45 89.351 586.954 87.263C586.378 88.343 585.802 89.099 585.226 89.531C584.65 90.035 583.498 90.683 581.77 91.475C580.114 92.339 577.738 93.023 574.642 93.527C571.546 94.103 568.45 94.247 565.354 93.959C562.258 93.743 559.414 92.987 556.822 91.691C554.302 90.467 552.61 88.523 551.746 85.859C550.09 80.675 550.306 74.087 552.394 66.095C553.834 60.839 556.426 56.195 560.17 52.163C564.49 47.555 569.386 43.739 574.858 40.715C578.962 38.483 582.922 37.151 586.738 36.719C588.034 36.575 589.15 36.611 590.086 36.827C591.094 37.043 592.138 37.259 593.218 37.475C594.37 37.691 595.45 38.015 596.458 38.447C599.05 39.527 600.346 41.003 600.346 42.875ZM580.366 71.495C580.87 70.487 581.266 69.227 581.554 67.715C581.914 66.203 582.382 64.547 582.958 62.747C577.126 65.123 572.662 68.039 569.566 71.495C566.182 75.311 566.398 77.939 570.214 79.379C573.526 80.243 575.938 79.703 577.45 77.759C578.098 76.895 578.674 75.815 579.178 74.519C579.682 73.223 580.294 71.891 581.014 70.523C580.798 70.883 580.582 71.207 580.366 71.495ZM641.293 8.42303L641.401 7.99103L642.373 7.01903C643.165 5.14703 644.029 4.03102 644.965 3.67103C645.469 3.52703 646.117 3.34703 646.909 3.13103C647.701 2.91503 648.745 2.37503 650.041 1.51103C650.545 0.503027 651.589 0.0710266 653.173 0.215025C654.757 0.287028 656.305 0.791028 657.817 1.72702C659.401 2.59103 660.661 3.81503 661.597 5.39903C662.605 6.98303 662.857 8.63903 662.353 10.367C661.849 12.023 661.417 13.283 661.057 14.147C660.769 14.939 660.445 15.695 660.085 16.415C659.797 17.135 659.401 17.963 658.897 18.899C658.465 19.763 657.889 20.951 657.169 22.463L653.605 29.915C653.245 30.851 652.921 31.391 652.633 31.535C652.417 31.679 652.201 31.931 651.985 32.291C652.633 32.147 653.173 32.039 653.605 31.967C654.037 31.895 654.469 31.823 654.901 31.751C655.909 31.607 657.061 31.463 658.357 31.319C659.149 31.463 659.833 31.535 660.409 31.535H661.921C662.785 31.535 663.829 31.787 665.053 32.291C666.277 32.723 667.069 33.515 667.429 34.667C667.789 35.819 667.825 37.007 667.537 38.231C667.249 39.383 666.673 40.463 665.809 41.471C664.945 42.479 663.829 43.019 662.461 43.091C656.197 44.819 651.733 45.755 649.069 45.899L648.421 46.655V46.763C647.701 48.491 646.909 50.687 646.045 53.351C645.253 55.943 644.353 58.787 643.345 61.883C642.409 64.907 641.437 68.075 640.429 71.387C639.421 74.627 638.377 77.759 637.297 80.783C633.841 90.935 631.321 96.443 629.737 97.307C629.161 97.595 628.549 97.775 627.901 97.847C627.325 97.991 627.001 98.099 626.929 98.171C624.409 98.027 622.321 97.523 620.665 96.659C619.009 95.795 617.893 94.967 617.317 94.175C616.741 93.383 616.597 92.483 616.885 91.475C618.253 78.947 620.989 65.231 625.093 50.327C623.653 50.327 622.645 50.471 622.069 50.759C620.989 51.335 619.693 51.659 618.181 51.731H618.073C616.921 51.659 615.877 51.119 614.941 50.111C614.005 49.103 613.429 47.951 613.213 46.655C612.997 45.359 613.213 44.027 613.861 42.659C614.509 41.291 615.805 40.211 617.749 39.419C620.053 38.771 621.745 38.231 622.825 37.799C624.913 36.935 626.641 36.323 628.009 35.963C629.449 35.603 630.241 35.387 630.385 35.315C630.601 35.171 630.745 35.063 630.817 34.991C631.033 34.847 631.573 34.775 632.437 34.775C632.869 32.687 633.301 30.563 633.733 28.403C634.165 26.243 634.705 24.047 635.353 21.815C636.793 16.631 638.773 12.167 641.293 8.42303ZM676.56 42.443C677.496 40.067 679.728 38.447 683.256 37.583C686.568 36.719 689.664 36.827 692.544 37.907C695.496 39.059 696.828 40.931 696.54 43.523C695.748 46.043 694.74 49.139 693.516 52.811C692.364 56.411 691.248 60.119 690.168 63.935C687.288 73.727 685.632 80.639 685.2 84.671C684.12 91.151 682.32 94.643 679.8 95.147C679.08 95.291 678.396 95.399 677.748 95.471C676.164 95.543 675.156 95.975 674.724 96.767C674.292 97.559 673.572 98.135 672.564 98.495C671.556 98.927 670.44 99.107 669.216 99.035C668.064 99.035 666.876 98.747 665.652 98.171C664.428 97.667 663.384 96.911 662.52 95.903C660.504 93.455 660.108 90.179 661.332 86.075C662.484 78.227 665.4 68.255 670.08 56.159C672.312 50.183 674.472 45.611 676.56 42.443ZM696.972 26.243C693.444 26.963 690.564 26.747 688.332 25.595C686.172 24.443 684.912 23.075 684.552 21.491C684.192 19.835 684.696 18.143 686.064 16.415C687.648 14.255 690.024 12.851 693.192 12.203C694.632 12.059 695.676 11.987 696.324 11.987C696.972 11.987 697.764 12.131 698.7 12.419C701.076 12.635 702.624 13.679 703.344 15.551C704.352 17.135 704.424 18.935 703.56 20.951C702.768 22.967 700.572 24.731 696.972 26.243ZM715.363 43.091C716.875 42.011 718.747 41.759 720.979 42.335C721.411 42.407 721.843 42.443 722.275 42.443C723.859 39.203 726.595 37.511 730.483 37.367C731.491 37.295 732.895 37.115 734.695 36.827C736.495 36.539 738.655 36.611 741.175 37.043C743.767 37.475 746.035 38.231 747.979 39.311C752.227 41.615 754.783 44.927 755.647 49.247C757.375 55.583 757.123 62.495 754.891 69.983C752.515 78.263 748.483 84.887 742.795 89.855C740.203 92.159 737.467 93.599 734.587 94.175C731.707 94.823 729.115 95.183 726.811 95.255C724.507 95.327 722.383 95.327 720.439 95.255C718.567 95.255 716.731 95.075 714.931 94.715C711.043 93.923 707.839 92.087 705.319 89.207C702.367 85.967 701.107 80.927 701.539 74.087C701.827 68.039 703.339 61.955 706.075 55.835C708.883 49.643 711.979 45.395 715.363 43.091ZM734.371 64.799C732.571 65.375 730.879 65.627 729.295 65.555C728.503 66.347 727.783 67.211 727.135 68.147C726.559 69.011 725.767 69.839 724.759 70.631C723.751 71.351 723.247 71.639 723.247 71.495C722.023 73.223 721.015 75.023 720.223 76.895C719.431 78.695 719.431 80.531 720.223 82.403C723.103 82.691 725.227 82.619 726.595 82.187C727.963 81.755 729.223 80.927 730.375 79.703C731.599 78.479 732.535 77.039 733.183 75.383C734.479 72.287 734.875 68.759 734.371 64.799ZM778.156 42.443C782.98 40.499 786.22 40.463 787.876 42.335C788.74 43.343 789.172 44.747 789.172 46.547V47.087C791.836 43.991 796.48 41.399 803.104 39.311C810.088 37.151 815.848 36.539 820.384 37.475C826.288 38.699 829.6 42.551 830.32 49.031C830.896 54.503 829.636 61.451 826.54 69.875C825.532 72.035 824.74 73.799 824.164 75.167C823.66 76.463 823.192 77.651 822.76 78.731C821.824 80.747 820.348 83.159 818.332 85.967C817.18 88.127 815.38 89.783 812.932 90.935C810.556 92.087 808.18 92.735 805.804 92.879C803.5 93.095 801.592 92.735 800.08 91.799C798.568 90.935 798.136 89.531 798.784 87.587C800.44 83.123 801.808 79.055 802.888 75.383C803.968 71.711 805.084 68.579 806.236 65.987C807.316 62.315 807.46 60.011 806.668 59.075C806.02 58.355 804.904 58.463 803.32 59.399C801.952 60.263 800.98 61.271 800.404 62.423C799.108 63.359 796.66 67.103 793.06 73.655C792.052 75.455 791.044 77.255 790.036 79.055C789.1 80.783 788.2 82.403 787.336 83.915C786.544 85.427 785.824 86.687 785.176 87.695C784.6 88.703 784.06 89.351 783.556 89.639C783.124 89.999 782.728 90.215 782.368 90.287C782.08 90.431 781.828 90.575 781.612 90.719C781.396 90.863 781.216 91.331 781.072 92.123C780.784 93.779 779.056 95.003 775.888 95.795C770.776 97.091 766.168 96.875 762.064 95.147C760.696 94.571 759.616 93.779 758.824 92.771C757.168 89.459 760.012 78.191 767.356 58.967C769.948 52.199 771.64 48.167 772.432 46.871C774.232 44.135 775.384 42.587 775.888 42.227C776.464 41.867 777.22 41.939 778.156 42.443ZM152.578 110.667C162.946 108.579 171.01 109.875 176.77 114.555C179.506 116.787 181.306 120.027 182.17 124.275C183.106 128.523 182.638 133.275 180.766 138.531C179.974 140.979 178.606 142.815 176.662 144.039C174.718 145.263 172.702 145.983 170.614 146.199C168.598 146.343 166.762 146.091 165.106 145.443C163.45 144.723 162.55 143.715 162.406 142.419L161.434 140.259C159.706 137.667 156.718 137.343 152.47 139.287C148.798 140.943 145.126 143.823 141.454 147.927C137.566 152.319 135.046 156.279 133.894 159.807C132.598 163.695 131.95 166.251 131.95 167.475C131.806 170.211 132.778 172.659 134.866 174.819C137.89 176.763 140.914 177.663 143.938 177.519C146.962 177.303 149.662 176.619 152.038 175.467C154.414 174.243 156.358 172.875 157.87 171.363C159.382 169.851 160.138 168.771 160.138 168.123C160.354 167.691 160.57 167.259 160.786 166.827C161.002 166.395 161.182 165.963 161.326 165.531C161.038 165.531 161.11 165.531 161.542 165.531C161.974 165.459 162.082 165.459 161.866 165.531C161.65 165.531 161.758 165.567 162.19 165.639L162.838 165.855C159.31 169.023 155.89 169.671 152.578 167.799C151.282 167.007 150.13 166.179 149.122 165.315C148.114 164.379 147.178 163.947 146.314 164.019C144.73 163.155 144.37 161.463 145.234 158.943C145.594 157.935 146.242 156.999 147.178 156.135C148.186 155.199 149.446 154.551 150.958 154.191C158.158 151.095 164.818 150.375 170.938 152.031C173.674 152.751 175.546 154.227 176.554 156.459C177.634 158.619 178.102 161.067 177.958 163.803C177.814 166.539 177.202 169.311 176.122 172.119C175.114 174.927 173.998 177.195 172.774 178.923C171.55 180.579 169.822 182.559 167.59 184.863C165.43 187.167 162.694 189.399 159.382 191.559C151.246 196.815 142.534 199.335 133.246 199.119C119.782 198.903 111.826 193.395 109.378 182.595C108.586 179.139 108.226 175.251 108.298 170.931C109.018 158.403 112.762 146.703 119.53 135.831C122.77 130.647 127.126 125.535 132.598 120.495C136.054 117.399 139.942 115.023 144.262 113.367C146.566 112.431 149.338 111.531 152.578 110.667ZM193.151 147.495C194.159 144.903 195.563 142.959 197.363 141.663C199.235 140.295 200.999 139.467 202.655 139.179C204.383 138.819 205.787 138.999 206.867 139.719C208.019 140.439 208.415 141.555 208.055 143.067C209.423 141.699 211.403 140.439 213.995 139.287C216.587 138.135 218.639 137.343 220.151 136.911C221.663 136.479 222.959 136.263 224.039 136.263C226.415 136.407 227.099 137.703 226.091 140.151C227.315 140.367 228.215 141.159 228.791 142.527C229.367 143.895 229.439 145.407 229.007 147.063C228.575 148.719 227.603 150.339 226.091 151.923C224.579 153.507 222.527 154.587 219.935 155.163C217.415 155.739 215.291 157.071 213.563 159.159C211.907 161.175 210.431 163.695 209.135 166.719C206.975 171.831 205.031 179.067 203.303 188.427C202.727 191.811 200.387 194.655 196.283 196.959C192.395 199.191 188.831 199.839 185.591 198.903C181.919 197.895 180.299 195.195 180.731 190.803C180.875 187.707 181.811 183.603 183.539 178.491C185.267 173.307 186.599 169.419 187.535 166.827C188.471 164.163 189.119 162.147 189.479 160.779L193.151 147.495ZM265.777 176.223C264.409 176.871 263.077 177.375 261.781 177.735C260.485 178.095 258.973 178.455 257.245 178.815C252.709 179.751 249.433 180.291 247.417 180.435C247.633 181.155 248.713 182.019 250.657 183.027C251.953 183.243 253.357 183.063 254.869 182.487C256.453 181.839 258.073 181.263 259.729 180.759C261.457 180.183 263.113 179.859 264.697 179.787C266.353 179.715 267.901 180.327 269.341 181.623C269.917 182.919 270.385 183.675 270.745 183.891C271.105 184.107 271.429 184.215 271.717 184.215C272.005 184.215 272.329 184.323 272.689 184.539C273.049 184.755 273.553 185.583 274.201 187.023C274.921 188.463 274.741 189.831 273.661 191.127C272.653 192.423 271.069 193.539 268.909 194.475C266.749 195.411 264.229 196.167 261.349 196.743C258.469 197.319 255.589 197.715 252.709 197.931C246.229 198.435 241.297 197.931 237.913 196.419C233.017 194.763 229.849 191.487 228.409 186.591C226.537 180.111 227.581 172.551 231.541 163.911C233.341 159.879 236.185 155.559 240.073 150.951C243.457 146.919 247.237 144.003 251.413 142.203C256.237 140.115 261.277 139.143 266.533 139.287C272.149 139.431 276.037 141.879 278.197 146.631C279.277 149.151 279.493 152.679 278.845 157.215C277.693 163.119 276.181 167.295 274.309 169.743C272.437 172.119 269.593 174.279 265.777 176.223ZM259.513 159.159C255.697 158.367 252.709 160.527 250.549 165.639C249.901 167.007 249.397 168.447 249.037 169.959C251.485 170.247 254.077 168.879 256.813 165.855C257.821 164.631 258.577 163.407 259.081 162.183C259.585 160.887 259.729 159.879 259.513 159.159ZM332.89 145.875L333.322 145.983C333.466 145.983 333.538 146.019 333.538 146.091C335.41 145.371 336.958 145.911 338.182 147.711C338.974 148.935 339.586 150.807 340.018 153.327C340.162 156.783 339.802 161.571 338.938 167.691C337.282 180.075 336.382 187.455 336.238 189.831C336.382 192.351 334.834 194.079 331.594 195.015C328.786 195.879 325.978 195.843 323.17 194.907C320.218 193.899 318.994 192.351 319.498 190.263C318.922 191.343 318.346 192.099 317.77 192.531C317.194 193.035 316.042 193.683 314.314 194.475C312.658 195.339 310.282 196.023 307.186 196.527C304.09 197.103 300.994 197.247 297.898 196.959C294.802 196.743 291.958 195.987 289.366 194.691C286.846 193.467 285.154 191.523 284.29 188.859C282.634 183.675 282.85 177.087 284.938 169.095C286.378 163.839 288.97 159.195 292.714 155.163C297.034 150.555 301.93 146.739 307.402 143.715C311.506 141.483 315.466 140.151 319.282 139.719C320.578 139.575 321.694 139.611 322.63 139.827C323.638 140.043 324.682 140.259 325.762 140.475C326.914 140.691 327.994 141.015 329.002 141.447C331.594 142.527 332.89 144.003 332.89 145.875ZM312.91 174.495C313.414 173.487 313.81 172.227 314.098 170.715C314.458 169.203 314.926 167.547 315.502 165.747C309.67 168.123 305.206 171.039 302.11 174.495C298.726 178.311 298.942 180.939 302.758 182.379C306.07 183.243 308.482 182.703 309.994 180.759C310.642 179.895 311.218 178.815 311.722 177.519C312.226 176.223 312.838 174.891 313.558 173.523C313.342 173.883 313.126 174.207 312.91 174.495ZM373.837 111.423L373.945 110.991L374.917 110.019C375.709 108.147 376.573 107.031 377.509 106.671C378.013 106.527 378.661 106.347 379.453 106.131C380.245 105.915 381.289 105.375 382.585 104.511C383.089 103.503 384.133 103.071 385.717 103.215C387.301 103.287 388.849 103.791 390.361 104.727C391.945 105.591 393.205 106.815 394.141 108.399C395.149 109.983 395.401 111.639 394.897 113.367C394.393 115.023 393.961 116.283 393.601 117.147C393.313 117.939 392.989 118.695 392.629 119.415C392.341 120.135 391.945 120.963 391.441 121.899C391.009 122.763 390.433 123.951 389.713 125.463L386.149 132.915C385.789 133.851 385.465 134.391 385.177 134.535C384.961 134.679 384.745 134.931 384.529 135.291C385.177 135.147 385.717 135.039 386.149 134.967C386.581 134.895 387.013 134.823 387.445 134.751C388.453 134.607 389.605 134.463 390.901 134.319C391.693 134.463 392.377 134.535 392.953 134.535H394.465C395.329 134.535 396.373 134.787 397.597 135.291C398.821 135.723 399.613 136.515 399.973 137.667C400.333 138.819 400.369 140.007 400.081 141.231C399.793 142.383 399.217 143.463 398.353 144.471C397.489 145.479 396.373 146.019 395.005 146.091C388.741 147.819 384.277 148.755 381.613 148.899L380.965 149.655V149.763C380.245 151.491 379.453 153.687 378.589 156.351C377.797 158.943 376.897 161.787 375.889 164.883C374.953 167.907 373.981 171.075 372.973 174.387C371.965 177.627 370.921 180.759 369.841 183.783C366.385 193.935 363.865 199.443 362.281 200.307C361.705 200.595 361.093 200.775 360.445 200.847C359.869 200.991 359.545 201.099 359.473 201.171C356.953 201.027 354.865 200.523 353.209 199.659C351.553 198.795 350.437 197.967 349.861 197.175C349.285 196.383 349.141 195.483 349.429 194.475C350.797 181.947 353.533 168.231 357.637 153.327C356.197 153.327 355.189 153.471 354.613 153.759C353.533 154.335 352.237 154.659 350.725 154.731H350.617C349.465 154.659 348.421 154.119 347.485 153.111C346.549 152.103 345.973 150.951 345.757 149.655C345.541 148.359 345.757 147.027 346.405 145.659C347.053 144.291 348.349 143.211 350.293 142.419C352.597 141.771 354.289 141.231 355.369 140.799C357.457 139.935 359.185 139.323 360.553 138.963C361.993 138.603 362.785 138.387 362.929 138.315C363.145 138.171 363.289 138.063 363.361 137.991C363.577 137.847 364.117 137.775 364.981 137.775C365.413 135.687 365.845 133.563 366.277 131.403C366.709 129.243 367.249 127.047 367.897 124.815C369.337 119.631 371.317 115.167 373.837 111.423ZM491.456 118.983C493.904 120.279 495.452 122.187 496.1 124.707C494.66 132.771 493.364 140.799 492.212 148.791C491.06 156.711 489.944 163.371 488.864 168.771C487.784 174.099 487.028 178.095 486.596 180.759C486.236 183.423 485.804 186.087 485.3 188.751L484.652 191.019C484.508 191.811 484.364 192.531 484.22 193.179C484.076 193.899 483.932 194.655 483.788 195.447C481.772 197.751 479.036 198.903 475.58 198.903C471.908 198.903 468.992 197.967 466.832 196.095C465.536 195.087 465.32 192.963 466.184 189.723C466.544 188.427 466.76 186.771 466.832 184.755C466.976 182.667 467.12 180.939 467.264 179.571V179.355C465.104 180.147 463.16 181.191 461.432 182.487C459.704 183.711 458.624 184.503 458.192 184.863C457.76 185.151 457.184 185.403 456.464 185.619C455.744 185.763 455.096 185.871 454.52 185.943C453.152 186.015 452.216 186.231 451.712 186.591C447.536 194.079 443.792 198.255 440.48 199.119C438.392 199.767 436.304 199.911 434.216 199.551C432.128 199.263 430.472 198.039 429.248 195.879C426.944 193.719 427.52 187.815 430.976 178.167C432.848 173.055 435.512 166.935 438.968 159.807C442.496 152.607 445.88 146.343 449.12 141.015C456.104 129.567 463.772 119.919 472.124 112.071C473.492 111.495 474.968 110.847 476.552 110.127C478.136 109.335 479.684 108.903 481.196 108.831C482.78 108.759 484.4 108.939 486.056 109.371C487.712 109.803 489.116 110.451 490.268 111.315C492.932 113.331 493.328 115.887 491.456 118.983ZM468.344 147.387C466.832 151.707 465.32 155.703 463.808 159.375C462.296 162.975 461 166.143 459.92 168.879L468.452 168.555C469.028 163.947 469.676 159.375 470.396 154.839C471.116 150.303 471.8 145.767 472.448 141.231L468.344 147.387ZM465.428 168.987C466.436 168.987 467.444 168.915 468.452 168.771V168.663C467.516 168.735 466.652 168.807 465.86 168.879C465.068 168.951 464.924 168.987 465.428 168.987ZM541.293 149.115C542.517 146.883 544.137 145.767 546.153 145.767C549.249 147.495 551.193 150.303 551.985 154.191C552.777 158.079 551.913 161.571 549.393 164.667C549.321 164.739 549.357 165.351 549.501 166.503C550.797 173.703 550.329 181.191 548.097 188.967C547.305 191.559 546.369 193.971 545.289 196.203C544.281 198.435 542.985 201.243 541.401 204.627C539.889 208.011 537.729 211.359 534.921 214.671C532.113 217.983 528.945 220.611 525.417 222.555C518.001 226.731 509.721 227.631 500.577 225.255C497.265 223.959 494.961 222.447 493.665 220.719C492.009 218.631 491.433 216.399 491.937 214.023C492.441 211.071 494.169 209.451 497.121 209.163C498.561 209.019 500.361 209.559 502.521 210.783C504.969 211.287 506.949 211.251 508.461 210.675C509.973 210.099 511.161 209.559 512.025 209.055C512.961 208.623 514.113 208.047 515.481 207.327C517.857 206.103 520.557 203.295 523.581 198.903C525.237 196.599 526.893 193.503 528.549 189.615C525.885 192.999 521.637 194.655 515.805 194.583C514.149 194.511 512.277 194.439 510.189 194.367C508.173 194.295 506.337 193.611 504.681 192.315C503.025 191.019 501.693 189.327 500.685 187.239C499.677 185.151 498.993 182.775 498.633 180.111C498.345 177.375 498.345 174.603 498.633 171.795C499.785 162.003 503.889 154.263 510.945 148.575C515.769 144.615 520.953 142.491 526.497 142.203C529.161 142.059 531.681 142.347 534.057 143.067C536.937 144.147 539.349 146.163 541.293 149.115ZM528.117 173.631C528.117 173.415 528.153 173.235 528.225 173.091C527.865 172.947 527.505 172.839 527.145 172.767C526.785 172.623 526.137 172.407 525.201 172.119C524.265 171.831 523.005 172.011 521.421 172.659C519.837 173.235 518.433 174.063 517.209 175.143C516.057 176.151 515.121 177.231 514.401 178.383C513.753 179.535 513.645 180.507 514.077 181.299C514.581 182.091 515.445 182.415 516.669 182.271C517.893 182.055 519.225 181.515 520.665 180.651C523.833 178.707 526.317 176.367 528.117 173.631ZM607.172 145.875L607.604 145.983C607.748 145.983 607.82 146.019 607.82 146.091C609.692 145.371 611.24 145.911 612.464 147.711C613.256 148.935 613.868 150.807 614.3 153.327C614.444 156.783 614.084 161.571 613.22 167.691C611.564 180.075 610.664 187.455 610.52 189.831C610.664 192.351 609.116 194.079 605.876 195.015C603.068 195.879 600.26 195.843 597.452 194.907C594.5 193.899 593.276 192.351 593.78 190.263C593.204 191.343 592.628 192.099 592.052 192.531C591.476 193.035 590.324 193.683 588.596 194.475C586.94 195.339 584.564 196.023 581.468 196.527C578.372 197.103 575.276 197.247 572.18 196.959C569.084 196.743 566.24 195.987 563.648 194.691C561.128 193.467 559.436 191.523 558.572 188.859C556.916 183.675 557.132 177.087 559.22 169.095C560.66 163.839 563.252 159.195 566.996 155.163C571.316 150.555 576.212 146.739 581.684 143.715C585.788 141.483 589.748 140.151 593.564 139.719C594.86 139.575 595.976 139.611 596.912 139.827C597.92 140.043 598.964 140.259 600.044 140.475C601.196 140.691 602.276 141.015 603.284 141.447C605.876 142.527 607.172 144.003 607.172 145.875ZM587.192 174.495C587.696 173.487 588.092 172.227 588.38 170.715C588.74 169.203 589.208 167.547 589.784 165.747C583.952 168.123 579.488 171.039 576.392 174.495C573.008 178.311 573.224 180.939 577.04 182.379C580.352 183.243 582.764 182.703 584.276 180.759C584.924 179.895 585.5 178.815 586.004 177.519C586.508 176.223 587.12 174.891 587.84 173.523C587.624 173.883 587.408 174.207 587.192 174.495ZM633.107 145.443C634.043 143.067 636.275 141.447 639.803 140.583C643.115 139.719 646.211 139.827 649.091 140.907C652.043 142.059 653.375 143.931 653.087 146.523C652.295 149.043 651.287 152.139 650.063 155.811C648.911 159.411 647.795 163.119 646.715 166.935C643.835 176.727 642.179 183.639 641.747 187.671C640.667 194.151 638.867 197.643 636.347 198.147C635.627 198.291 634.943 198.399 634.295 198.471C632.711 198.543 631.703 198.975 631.271 199.767C630.839 200.559 630.119 201.135 629.111 201.495C628.103 201.927 626.987 202.107 625.763 202.035C624.611 202.035 623.423 201.747 622.199 201.171C620.975 200.667 619.931 199.911 619.067 198.903C617.051 196.455 616.655 193.179 617.879 189.075C619.031 181.227 621.947 171.255 626.627 159.159C628.859 153.183 631.019 148.611 633.107 145.443ZM653.519 129.243C649.991 129.963 647.111 129.747 644.879 128.595C642.719 127.443 641.459 126.075 641.099 124.491C640.739 122.835 641.243 121.143 642.611 119.415C644.195 117.255 646.571 115.851 649.739 115.203C651.179 115.059 652.223 114.987 652.871 114.987C653.519 114.987 654.311 115.131 655.247 115.419C657.623 115.635 659.171 116.679 659.891 118.551C660.899 120.135 660.971 121.935 660.107 123.951C659.315 125.967 657.119 127.731 653.519 129.243ZM674.826 145.443C679.65 143.499 682.89 143.463 684.546 145.335C685.41 146.343 685.842 147.747 685.842 149.547V150.087C688.506 146.991 693.15 144.399 699.774 142.311C706.758 140.151 712.518 139.539 717.054 140.475C722.958 141.699 726.27 145.551 726.99 152.031C727.566 157.503 726.306 164.451 723.21 172.875C722.202 175.035 721.41 176.799 720.834 178.167C720.33 179.463 719.862 180.651 719.43 181.731C718.494 183.747 717.018 186.159 715.002 188.967C713.85 191.127 712.05 192.783 709.602 193.935C707.226 195.087 704.85 195.735 702.474 195.879C700.17 196.095 698.262 195.735 696.75 194.799C695.238 193.935 694.806 192.531 695.454 190.587C697.11 186.123 698.478 182.055 699.558 178.383C700.638 174.711 701.754 171.579 702.906 168.987C703.986 165.315 704.13 163.011 703.338 162.075C702.69 161.355 701.574 161.463 699.99 162.399C698.622 163.263 697.65 164.271 697.074 165.423C695.778 166.359 693.33 170.103 689.73 176.655C688.722 178.455 687.714 180.255 686.706 182.055C685.77 183.783 684.87 185.403 684.006 186.915C683.214 188.427 682.494 189.687 681.846 190.695C681.27 191.703 680.73 192.351 680.226 192.639C679.794 192.999 679.398 193.215 679.038 193.287C678.75 193.431 678.498 193.575 678.282 193.719C678.066 193.863 677.886 194.331 677.742 195.123C677.454 196.779 675.726 198.003 672.558 198.795C667.446 200.091 662.838 199.875 658.734 198.147C657.366 197.571 656.286 196.779 655.494 195.771C653.838 192.459 656.682 181.191 664.026 161.967C666.618 155.199 668.31 151.167 669.102 149.871C670.902 147.135 672.054 145.587 672.558 145.227C673.134 144.867 673.89 144.939 674.826 145.443Z" fill="white"/>
</svg>
