<svg width="98" height="33" viewBox="0 0 98 33" fill="none" xmlns="http://www.w3.org/2000/svg">
  <g clip-path="url(#clip0_12243_184484)">
    <path d="M1.47994 0.151641C3.31939 -0.0502123 5.52891 0.555071 7.12694 1.71954C9.16175 3.19989 9.75285 5.64862 11.428 7.18073C13.1904 8.79037 16.3146 7.79129 14.9736 5.27583C14.6499 4.66508 14.064 4.06992 13.283 3.63513C11.9419 2.88461 12.9336 1.70955 14.1565 1.63708C18.3084 1.39898 19.4542 7.22698 26.4732 7.22705L26.4783 7.23214H85.493C92.3734 7.23214 98.0001 12.9001 98.0001 19.8308C98 26.7615 92.3682 32.429 85.493 32.429H14.5113C7.66697 32.429 2.05566 26.8183 2.00427 19.9342C1.99914 19.163 2.05537 18.3451 2.19924 17.5895C2.53838 15.8503 4.06966 16.1766 4.38311 17.4861C5.49304 22.1548 10.2462 19.6028 8.62764 16.7302C8.11378 15.814 6.98833 14.7997 6.51046 14.1268C5.34407 12.4913 5.19015 11.4818 5.22611 8.81634C5.27235 5.62272 3.86919 3.84215 1.10986 2.3411C-0.364668 1.53885 0.395833 0.270778 1.47994 0.151641Z" fill="#FD69CF"/>
    <path d="M1.43871 10.2076C2.39445 10.2076 3.30935 11.2223 3.4892 12.4749C3.6639 13.7275 3.03688 14.7423 2.08114 14.7423C1.12546 14.7422 0.205898 13.7224 0.0311594 12.4699C-0.143533 11.2174 0.483092 10.2027 1.43871 10.2025V10.2076Z" fill="#FD69CF"/>
    <path fill-rule="evenodd" clip-rule="evenodd" d="M35.8335 15.9692C35.2117 14.8978 34.405 14.0541 33.3979 13.433C32.8635 13.0965 32.2828 12.8377 31.6508 12.6514C31.0188 12.4599 30.3662 12.3667 29.6931 12.3667H28.4599C27.7713 12.3667 27.1085 12.4599 26.4816 12.6514C25.865 12.8377 25.2792 13.0965 24.7396 13.433C23.7325 14.0541 22.9309 14.8978 22.3246 15.9692C21.708 17.0251 21.3945 18.1949 21.3945 19.4837V20.8761C21.3945 21.5697 21.487 22.2374 21.6771 22.874C21.8621 23.4952 22.119 24.0852 22.453 24.6287C23.0697 25.6432 23.9072 26.4507 24.9709 27.0615C26.0191 27.6826 27.1804 27.9983 28.4599 27.9983H29.6931C30.3816 27.9983 31.0342 27.9051 31.6508 27.7136C32.2828 27.5273 32.8738 27.2685 33.4236 26.9321C34.4307 26.3109 35.2323 25.4672 35.8386 24.3958C36.4552 23.3399 36.7636 22.1701 36.7636 20.8813V19.4889C36.7636 18.2001 36.4552 17.0303 35.8386 15.9744L35.8335 15.9692ZM31.5583 21.4506C31.5583 22.7188 30.5306 23.754 29.2717 23.754H28.7682C27.5093 23.754 26.4816 22.7188 26.4816 21.4506V18.9299C26.4816 17.6618 27.5093 16.6266 28.7682 16.6266H29.2717C30.5306 16.6266 31.5583 17.6618 31.5583 18.9299V21.4506Z" fill="black"/>
    <path fill-rule="evenodd" clip-rule="evenodd" d="M44.2143 20.4465C44.2143 19.2405 43.2842 18.2518 42.1486 18.2518H41.0798C39.9442 18.2518 39.0142 19.2405 39.0142 20.4465V25.7985C39.0142 27.0045 39.9442 27.9931 41.0798 27.9931H42.1486C43.2842 27.9931 44.2143 27.0045 44.2143 25.7985V20.4465Z" fill="black"/>
    <path fill-rule="evenodd" clip-rule="evenodd" d="M44.2143 14.6545V15.1359C44.2143 16.3419 43.2842 17.3305 42.1486 17.3305H41.0798C39.9442 17.3305 39.0142 16.3419 39.0142 15.1359V14.6545C39.0142 13.4485 39.9442 12.4599 41.0798 12.4599H42.1486C43.2842 12.4599 44.2143 13.4485 44.2143 14.6545Z" fill="black"/>
    <path fill-rule="evenodd" clip-rule="evenodd" d="M51.6753 20.4465C51.6753 19.2405 50.7452 18.2518 49.6096 18.2518H48.5408C47.4052 18.2518 46.4752 19.2405 46.4752 20.4465V25.7985C46.4752 27.0045 47.4052 27.9931 48.5408 27.9931H49.6096C50.7452 27.9931 51.6753 27.0045 51.6753 25.7985V20.4465Z" fill="black"/>
    <path fill-rule="evenodd" clip-rule="evenodd" d="M51.6753 14.6545V15.1359C51.6753 16.3419 50.7452 17.3305 49.6096 17.3305H48.5408C47.4052 17.3305 46.4752 16.3419 46.4752 15.1359V14.6545C46.4752 13.4485 47.4052 12.4599 48.5408 12.4599H49.6096C50.7452 12.4599 51.6753 13.4485 51.6753 14.6545Z" fill="black"/>
    <path fill-rule="evenodd" clip-rule="evenodd" d="M68.3751 15.9692C67.7534 14.8978 66.9466 14.0541 65.9395 13.433C65.4051 13.0965 64.8245 12.8377 64.1925 12.6514C63.5604 12.4599 62.9078 12.3667 62.2347 12.3667H61.0015C60.3129 12.3667 59.6501 12.4599 59.0232 12.6514C58.4066 12.8377 57.8208 13.0965 57.2813 13.433C56.2741 14.0541 55.4726 14.8978 54.8662 15.9692C54.2496 17.0251 53.9362 18.1949 53.9362 19.4837V20.8761C53.9362 21.5697 54.0287 22.2374 54.2188 22.874C54.4038 23.4952 54.6607 24.0852 54.9947 24.6287C55.6113 25.6432 56.4489 26.4507 57.5125 27.0615C58.5607 27.6826 59.722 27.9983 61.0015 27.9983H62.2347C62.9233 27.9983 63.5758 27.9051 64.1925 27.7136C64.8245 27.5273 65.4154 27.2685 65.9652 26.9321C66.9723 26.3109 67.7739 25.4672 68.3803 24.3958C68.9969 23.3399 69.3052 22.1701 69.3052 20.8813V19.4889C69.3052 18.2001 68.9969 17.0303 68.3803 15.9744L68.3751 15.9692ZM64.1 21.4506C64.1 22.7188 63.0723 23.754 61.8134 23.754H61.3098C60.0509 23.754 59.0232 22.7188 59.0232 21.4506V18.9299C59.0232 17.6618 60.0509 16.6266 61.3098 16.6266H61.8134C63.0723 16.6266 64.1 17.6618 64.1 18.9299V21.4506Z" fill="black"/>
    <path fill-rule="evenodd" clip-rule="evenodd" d="M76.7559 20.4465C76.7559 19.2405 75.8258 18.2518 74.6902 18.2518H73.6215C72.4859 18.2518 71.5558 19.2405 71.5558 20.4465V25.7985C71.5558 27.0045 72.4859 27.9931 73.6215 27.9931H74.6902C75.8258 27.9931 76.7559 27.0045 76.7559 25.7985V20.4465Z" fill="black"/>
    <path fill-rule="evenodd" clip-rule="evenodd" d="M76.7559 14.6545V15.1359C76.7559 16.3419 75.8258 17.3305 74.6902 17.3305H73.6215C72.4859 17.3305 71.5558 16.3419 71.5558 15.1359V14.6545C71.5558 13.4485 72.4859 12.4599 73.6215 12.4599H74.6902C75.8258 12.4599 76.7559 13.4485 76.7559 14.6545Z" fill="black"/>
    <path fill-rule="evenodd" clip-rule="evenodd" d="M84.2169 20.4465C84.2169 19.2405 83.2868 18.2518 82.1512 18.2518H81.0824C79.9469 18.2518 79.0168 19.2405 79.0168 20.4465V25.7985C79.0168 27.0045 79.9469 27.9931 81.0824 27.9931H82.1512C83.2868 27.9931 84.2169 27.0045 84.2169 25.7985V20.4465Z" fill="black"/>
    <path fill-rule="evenodd" clip-rule="evenodd" d="M84.2169 14.6545V15.1359C84.2169 16.3419 83.2868 17.3305 82.1512 17.3305H81.0824C79.9469 17.3305 79.0168 16.3419 79.0168 15.1359V14.6545C79.0168 13.4485 79.9469 12.4599 81.0824 12.4599H82.1512C83.2868 12.4599 84.2169 13.4485 84.2169 14.6545Z" fill="black"/>
  </g>
  <defs>
    <clipPath id="clip0_12243_184484">
      <rect width="98" height="33" fill="white" />
    </clipPath>
  </defs>
</svg>
